<svg xmlns="http://www.w3.org/2000/svg" viewBox="0 0 1024 1024">
  <rect x="95" y="95" width="834" height="834" rx="200" ry="200" fill="#1A1AFF"/>
  <path fill="#3EFFFA" d="M744.3,679.93c-9.17-9.17-10.99-23.35-4.45-34.55,5.6-9.6,10.62-19.62,15.07-30.08,13.3-31.26,19.95-65.1,19.95-101.5s-6.55-70.23-19.6-101.5c-13.07-31.26-31.63-58.68-55.65-82.25-24.05-23.56-52.15-41.65-84.35-54.25-32.2-12.6-67.45-18.9-105.7-18.9s-73.5,6.3-105.7,18.9c-32.2,12.6-60.2,30.69-84,54.25-23.8,23.57-42.25,50.87-55.3,81.9-13.07,31.04-19.6,64.75-19.6,101.15s6.65,70.35,19.95,101.85c13.3,31.5,31.95,58.92,56,82.25,24.03,23.34,52.15,41.54,84.35,54.6s67.43,19.6,105.7,19.6,72.8-6.42,105-19.25c7.61-3.03,14.98-6.37,22.11-10,11.03-5.62,24.42-3.51,33.16,5.26l37.35,37.46c11.1,11.13,29.1,11.19,40.27.13l30.13-29.83c11.23-11.12,11.28-29.26.1-40.44l-34.79-34.79ZM509.56,659.39c-20.55,0-39.32-3.38-56.35-10.15-17.04-6.76-31.63-16.56-43.75-29.4-12.15-12.83-21.35-28.23-27.65-46.2-6.3-17.96-9.45-38.15-9.45-60.55,0-28.93,5.7-54.25,17.15-75.95,11.43-21.7,27.41-38.5,47.95-50.4,20.53-11.9,44.55-17.85,72.1-17.85,20.52,0,39.2,3.39,56,10.15,16.8,6.77,31.25,16.57,43.4,29.4,12.12,12.84,21.46,28.12,28,45.85,6.53,17.74,9.8,37.34,9.8,58.8,0,.22,0,.44,0,.66-.07,25.3-30.81,37.83-48.7,19.94l-15.13-15.13c-11.14-11.14-29.2-11.14-40.34,0l-29.69,29.69c-11.13,11.13-11.14,29.17-.03,40.31l22.01,22.08c17.67,17.72,5.59,47.88-19.42,48.66-1.95.06-3.92.09-5.9.09Z"/>
</svg>
